<svg width="24" height="24" viewBox="0 0 24 24" xmlns="http://www.w3.org/2000/svg">
  <defs>
    <linearGradient id="bg" x1="0" y1="0" x2="1" y2="1">
      <stop offset="0%" stop-color="#7C3AED"/>
      <stop offset="50%" stop-color="#06B6D4"/>
      <stop offset="100%" stop-color="#F97316"/>
    </linearGradient>
    <linearGradient id="panel" x1="0" y1="0" x2="1" y2="1">
      <stop offset="0%" stop-color="#0B1120"/>
      <stop offset="100%" stop-color="#111827"/>
    </linearGradient>
    <linearGradient id="chip" x1="0" y1="0" x2="1" y2="1">
      <stop offset="0%" stop-color="#D8B4FE"/>
      <stop offset="100%" stop-color="#67E8F9"/>
    </linearGradient>
    <filter id="glow" x="-30%" y="-30%" width="160%" height="160%">
      <feDropShadow dx="0" dy="0" stdDeviation="0.7" flood-color="#67E8F9" flood-opacity="0.25"/>
    </filter>
  </defs>

  <rect x="1.7" y="1.7" width="20.6" height="20.6" rx="6" fill="url(#bg)"/>
  <rect x="3.2" y="3.2" width="17.6" height="17.6" rx="5" fill="#F8FAFC" opacity="0.96"/>
  <rect x="5" y="5" width="14" height="14" rx="4" fill="url(#panel)"/>

  <g filter="url(#glow)">
    <path d="M9.8 9.5h4.4c.7 0 1.3.6 1.3 1.3v4.4c0 .7-.6 1.3-1.3 1.3H9.8c-.7 0-1.3-.6-1.3-1.3v-4.4c0-.7.6-1.3 1.3-1.3Z" fill="url(#chip)"/>
    <path d="M12 7.3 13.2 10.3h3l-2.4 1.8.9 2.9-2.7-1.9-2.7 1.9.9-2.9-2.4-1.8h3L12 7.3Z" fill="#F8FAFC"/>
  </g>

  <path d="M7.2 7.3h1M15.8 7.3h1M7.2 16.7h1M15.8 16.7h1" stroke="#E5E7EB" stroke-width="0.8" stroke-linecap="round"/>
  <path d="M7.2 12h1.3M15.5 12h1.3" stroke="#E5E7EB" stroke-width="0.8" stroke-linecap="round"/>
</svg>
